<?xml version="1.0" encoding="UTF-8" standalone="no"?>
<svg xmlns="http://www.w3.org/2000/svg" width="65.99988174438477mm" height="68.00140380859375mm" viewBox="0 0 65.99988174438477 68.00140380859375">
<desc>Created with Glowforge for Fusion 360. To download visit: https://cam.autodesk.com/hsmposts?p=glowforge</desc>
<!-- CAM Setup Info:
Work Area Width: 65.99988174438477mm
Work Area Height: 68.00140380859375mm
Work Area Too Small?: false
Stock box Upper Right: 30.999940872192383,32.000701904296875
Stock box Lower Left: -30.999940872192383,-32.000701904296875
Origin: 0,0
Selected Colors: #0000d3, #02abea, #1fb714, #dd0907, #f20884, #fbf305
-->
<g id="global-translation-frame" transform="translate(33, 34.001) scale(1, -1)">
<g id="opperation-1">
    <title>2D Profile8 (Op: 1/1)</title>
    <path d="M 25.59 28
             A 1.411 1.411 0 0 1 27.001 26.589
             A 1.411 1.411 0 0 1 28.412 28
             A 1.411 1.411 0 0 1 27.001 29.411
             A 1.411 1.411 0 0 1 25.59 28
             M -26.081 26.929
             A 1.411 1.411 0 0 1 -25.928 28.919
             A 1.411 1.411 0 0 1 -27.918 29.072
             A 1.411 1.411 0 0 1 -28.071 27.082
             A 1.411 1.411 0 0 1 -26.081 26.929
             M -25.928 -27.081
             A 1.411 1.411 0 0 1 -27.918 -26.928
             A 1.411 1.411 0 0 1 -28.071 -28.918
             A 1.411 1.411 0 0 1 -26.081 -29.071
             A 1.411 1.411 0 0 1 -25.928 -27.081
             M 25.59 -27.975
             A 1.411 1.411 0 0 1 26.976 -29.411
             A 1.411 1.411 0 0 1 28.412 -28.024
             A 1.411 1.411 0 0 1 27.025 -26.589
             A 1.411 1.411 0 0 1 25.59 -27.975
             M 25.59 -31.09
             L -27.069 -31.09
             A 0.089 0.089 0 0 0 -27.081 -31.089
             A 3.512 3.512 0 0 0 -30.088 -28.011
             A 0.089 0.089 0 0 0 -30.089 -28.001
             L -30.089 28.012
             A 0.089 0.089 0 0 0 -30.088 28.026
             A 3.642 3.642 0 0 0 -27.009 31.089
             A 0.089 0.089 0 0 0 -26.996 31.09
             L 27 31.09
             A 0.089 0.089 0 0 0 27.013 31.089
             A 3.644 3.644 0 0 0 30.088 28.035
             A 0.089 0.089 0 0 0 30.089 28.021
             L 30.089 -27.927
             L 30.088 -27.936
             A 3.536 3.536 0 0 0 27.032 -31.089
             A 0.089 0.089 0 0 0 27.021 -31.09
             L 25.59 -31.09" fill="none" stroke="#0000d3" stroke-width="0.1"/>
</g>
</g>
</svg>
